<svg xmlns="http://www.w3.org/2000/svg" viewBox="0 0 89.18 51.57"><defs><style>.cls-1{fill:#0091ce;}.cls-2{opacity:0.9;}.cls-3{fill:#fff;}</style></defs><title>Asset Logomdpi</title><g id="Layer_2" data-name="Layer 2"><g id="Layer_1-2" data-name="Layer 1"><rect class="cls-1" y="40.14" width="89.18" height="11.43"/><g id="Group_446" data-name="Group 446" class="cls-2"><path id="Path_1103" data-name="Path 1103" class="cls-1" d="M30.92,33.1s1.24-10.5,11.16-11.73,19.17.92,23.19,0,7-1.8,9.36-8c-.58,1.68-3,11.88-16.45,11.57s-9.73-.61-12.5-.25S34.12,25.74,30.92,33.1Z"/><path id="Path_1104" data-name="Path 1104" class="cls-1" d="M1.15,36.07S0,36,0,35.15V11.54a1.16,1.16,0,0,1,1.15-1.08H5.79s5.43-.21,5.43,7-5.37,6.9-5.37,6.9H2.29v10.7a1,1,0,0,1-1,1ZM2.29,12.82v9.24H5.61s3.31.54,3.31-4.62c0-1.17,0-4.62-3.49-4.62Z"/><path id="Path_1105" data-name="Path 1105" class="cls-1" d="M22,23.44h0c1.26-.88,2.44-2.6,2.44-6,0-7.2-5.43-7-5.43-7H14.35a1.16,1.16,0,0,0-1.15,1.08V35.15c0,.86,1.15.92,1.15.92a1,1,0,0,0,1.13-.9s0-.08,0-.12V24.35h3s3.76.41,3.76,3.94,0,6.86,0,6.86c0,.86,1.15.92,1.15.92a1,1,0,0,0,1.13-.9V27.84S24.28,24.41,22,23.44ZM15.48,12.82h3.15c3.53,0,3.49,3.45,3.49,4.62,0,5.16-3.31,4.62-3.31,4.62H15.48Z"/><path id="Path_1106" data-name="Path 1106" class="cls-1" d="M32.38,16.9l4.09,17.69s.46,1.94,1.69,1.49.61-1.9.61-1.9-5.06-21.52-5.26-22.5a1.13,1.13,0,1,0-2.25-.17.49.49,0,0,0,0,.17c-.2,1-5.27,22.49-5.27,22.49s-.61,1.45.62,1.9,1.68-1.49,1.68-1.49Z"/><path id="Path_1107" data-name="Path 1107" class="cls-1" d="M41.09,11.48a1,1,0,0,1,1-1h.13s1.15.06,1.15.92V35.06a1,1,0,0,1-1,1h-.12s-1.16,0-1.16-.92Z"/><path id="Path_1108" data-name="Path 1108" class="cls-1" d="M52.06,12.71c-2.2,0-3.93,1.17-3.93,4.75s3.22,4.5,4.14,5c5,2,5.22,5.21,5.22,7.26a6.27,6.27,0,0,1-5.78,6.4c-6.59,0-5.78-7.12-5.78-7.12a1,1,0,0,1,1-1h.12s1.09.06,1.15.92c.14,2.14.21,4.91,3.49,4.91s3.47-3.58,3.47-4,1.23-3-4.14-5.31-5.11-5.78-5.11-6.9.2-7,6.08-7,5.47,7.16,5.47,7.16a1,1,0,0,1-1,1h-.12s-1.16-.05-1.15-.92C55.22,14.91,54.26,12.71,52.06,12.71Z"/><path id="Path_1109" data-name="Path 1109" class="cls-1" d="M62.08,12.75v21h6.7a1,1,0,0,1,1,1v.12s-.06,1.15-.92,1.15H60.8c-.87,0-.88-1.14-.88-1.14V11.75a1.29,1.29,0,0,1,1.28-1.29h7.58a1,1,0,0,1,1,1v.12s-.06,1.15-.92,1.15Z"/><path id="Path_1110" data-name="Path 1110" class="cls-1" d="M75.3,35.56a.53.53,0,0,1-.51.52h-.06s-.58,0-.58-.46V22.89a.51.51,0,0,1,.51-.51h.06s.58,0,.58.46v5.85h3.41v-5.8a.5.5,0,0,1,.51-.51h.06s.58,0,.58.46V35.56a.52.52,0,0,1-.52.52h0s-.58,0-.58-.46l0-5.84H75.3Z"/><path id="Path_1111" data-name="Path 1111" class="cls-1" d="M83.41,35.56a.51.51,0,0,1-.51.52h-.06s-.58,0-.58-.46V22.89a.51.51,0,0,1,.51-.51h.06s.58,0,.58.46V29l4.25-6.29s.54-.55,1-.33.27.64,0,1.06l-3.37,5.25,3.45,6.25s.34.66-.08,1-.77.08-1.15-.61S84.4,30,84.4,30l-1,1.3Z"/><path id="Path_1112" data-name="Path 1112" class="cls-1" d="M74.63,0C73,0,70,1.38,70,4.39A6.71,6.71,0,0,0,71.26,7.8C72,9,74.63,13.13,74.63,13.13S77.23,9,78,7.8a6.89,6.89,0,0,0,1.27-3.41C79.27,1.33,76.22,0,74.63,0Zm0,6.8a2,2,0,1,1,2-2h0a2,2,0,0,1-2,2Z"/></g><g id="Group_618" data-name="Group 618" class="cls-2"><path id="Path_1103-2" data-name="Path 1103-2" class="cls-1" d="M30.92,33.1s1.24-10.5,11.16-11.73,19.17.92,23.19,0,7-1.8,9.36-8c-.58,1.68-3,11.88-16.45,11.57s-9.73-.61-12.5-.25S34.12,25.74,30.92,33.1Z"/><path id="Path_1104-2" data-name="Path 1104-2" class="cls-1" d="M1.15,36.07S0,36,0,35.15V11.54a1.16,1.16,0,0,1,1.15-1.08H5.79s5.43-.21,5.43,7-5.37,6.9-5.37,6.9H2.29v10.7a1,1,0,0,1-1,1ZM2.29,12.82v9.24H5.61s3.31.54,3.31-4.62c0-1.17,0-4.62-3.49-4.62Z"/><path id="Path_1105-2" data-name="Path 1105-2" class="cls-1" d="M22,23.44h0c1.26-.88,2.44-2.6,2.44-6,0-7.2-5.43-7-5.43-7H14.35a1.16,1.16,0,0,0-1.15,1.08V35.15c0,.86,1.15.92,1.15.92a1,1,0,0,0,1.13-.9s0-.08,0-.12V24.35h3s3.76.41,3.76,3.94,0,6.86,0,6.86c0,.86,1.15.92,1.15.92a1,1,0,0,0,1.13-.9V27.84S24.28,24.41,22,23.44ZM15.48,12.82h3.15c3.53,0,3.49,3.45,3.49,4.62,0,5.16-3.31,4.62-3.31,4.62H15.48Z"/><path id="Path_1106-2" data-name="Path 1106-2" class="cls-1" d="M32.38,16.9l4.09,17.69s.46,1.94,1.69,1.49.61-1.9.61-1.9-5.06-21.52-5.26-22.5a1.13,1.13,0,1,0-2.25-.17.49.49,0,0,0,0,.17c-.2,1-5.27,22.49-5.27,22.49s-.61,1.45.62,1.9,1.68-1.49,1.68-1.49Z"/><path id="Path_1107-2" data-name="Path 1107-2" class="cls-1" d="M41.09,11.48a1,1,0,0,1,1-1h.13s1.15.06,1.15.92V35.06a1,1,0,0,1-1,1h-.12s-1.16,0-1.16-.92Z"/><path id="Path_1108-2" data-name="Path 1108-2" class="cls-1" d="M52.06,12.71c-2.2,0-3.93,1.17-3.93,4.75s3.22,4.5,4.14,5c5,2,5.22,5.21,5.22,7.26a6.27,6.27,0,0,1-5.78,6.4c-6.59,0-5.78-7.12-5.78-7.12a1,1,0,0,1,1-1h.12s1.09.06,1.15.92c.14,2.14.21,4.91,3.49,4.91s3.47-3.58,3.47-4,1.23-3-4.14-5.31-5.11-5.78-5.11-6.9.2-7,6.08-7,5.47,7.16,5.47,7.16a1,1,0,0,1-1,1h-.12s-1.16-.05-1.15-.92C55.22,14.91,54.26,12.71,52.06,12.71Z"/><path id="Path_1109-2" data-name="Path 1109-2" class="cls-1" d="M62.08,12.75v21h6.7a1,1,0,0,1,1,1v.12s-.06,1.15-.92,1.15H60.8c-.87,0-.88-1.14-.88-1.14V11.75a1.29,1.29,0,0,1,1.28-1.29h7.58a1,1,0,0,1,1,1v.12s-.06,1.15-.92,1.15Z"/><path id="Path_1110-2" data-name="Path 1110-2" class="cls-1" d="M75.3,35.56a.53.53,0,0,1-.51.52h-.06s-.58,0-.58-.46V22.89a.51.51,0,0,1,.51-.51h.06s.58,0,.58.46v5.85h3.41v-5.8a.5.5,0,0,1,.51-.51h.06s.58,0,.58.46V35.56a.52.52,0,0,1-.52.52h0s-.58,0-.58-.46l0-5.84H75.3Z"/><path id="Path_1111-2" data-name="Path 1111-2" class="cls-1" d="M83.41,35.56a.51.51,0,0,1-.51.52h-.06s-.58,0-.58-.46V22.89a.51.51,0,0,1,.51-.51h.06s.58,0,.58.46V29l4.25-6.29s.54-.55,1-.33.27.64,0,1.06l-3.37,5.25,3.45,6.25s.34.66-.08,1-.77.08-1.15-.61S84.4,30,84.4,30l-1,1.3Z"/><path id="Path_1112-2" data-name="Path 1112-2" class="cls-1" d="M74.63,0C73,0,70,1.38,70,4.39A6.71,6.71,0,0,0,71.26,7.8C72,9,74.63,13.13,74.63,13.13S77.23,9,78,7.8a6.89,6.89,0,0,0,1.27-3.41C79.27,1.33,76.22,0,74.63,0Zm0,6.8a2,2,0,1,1,2-2h0a2,2,0,0,1-2,2Z"/></g><path class="cls-3" d="M11.31,47.26a.86.86,0,0,0-.27-.65,2.36,2.36,0,0,0-1-.45,3.14,3.14,0,0,1-1.35-.63,1.32,1.32,0,0,1-.49-1.05,1.4,1.4,0,0,1,.52-1.11,2,2,0,0,1,1.36-.45,2,2,0,0,1,1.44.51,1.56,1.56,0,0,1,.51,1.19v0h-.73a1.07,1.07,0,0,0-.34-.8,1.22,1.22,0,0,0-.87-.31,1.14,1.14,0,0,0-.82.26.88.88,0,0,0-.29.68.79.79,0,0,0,.31.62,2.9,2.9,0,0,0,1,.43,2.84,2.84,0,0,1,1.3.66,1.42,1.42,0,0,1,.45,1.07,1.31,1.31,0,0,1-.54,1.1,2.23,2.23,0,0,1-1.41.42,2.37,2.37,0,0,1-1.45-.46,1.42,1.42,0,0,1-.62-1.23v0h.74a1,1,0,0,0,.4.83,1.57,1.57,0,0,0,.92.29,1.36,1.36,0,0,0,.87-.25A.78.78,0,0,0,11.31,47.26Z"/><path class="cls-3" d="M14.76,47.12l.14.54h0l1-3.2h.86L15,49.34a2.25,2.25,0,0,1-.46.74,1.07,1.07,0,0,1-.81.32l-.24,0-.22-.05.08-.6h.34a.48.48,0,0,0,.41-.22,2.77,2.77,0,0,0,.26-.48l.18-.45L13,44.46h.86Z"/><path class="cls-3" d="M18.58,44.46l.05.56a1.49,1.49,0,0,1,.53-.47,1.58,1.58,0,0,1,.74-.16,1.29,1.29,0,0,1,.72.19,1.15,1.15,0,0,1,.46.59,1.49,1.49,0,0,1,.53-.58,1.46,1.46,0,0,1,.76-.2,1.25,1.25,0,0,1,1,.44,2,2,0,0,1,.38,1.33v2.53H23V46.16a1.36,1.36,0,0,0-.22-.89.78.78,0,0,0-.64-.26.84.84,0,0,0-.64.27,1.19,1.19,0,0,0-.28.7v2.71h-.78V46.16a1.36,1.36,0,0,0-.22-.87.75.75,0,0,0-.63-.28,1,1,0,0,0-.58.15.91.91,0,0,0-.35.4v3.13h-.77V44.46Z"/><path class="cls-3" d="M28.89,46.74a2.32,2.32,0,0,1-.44,1.47,1.44,1.44,0,0,1-1.21.56,1.59,1.59,0,0,1-.68-.13,1.39,1.39,0,0,1-.51-.39v2.07h-.77V44.46h.59L26,45a1.32,1.32,0,0,1,.51-.46,1.53,1.53,0,0,1,.72-.16,1.39,1.39,0,0,1,1.22.62,2.81,2.81,0,0,1,.44,1.65Zm-.77-.08a2.25,2.25,0,0,0-.29-1.19A.92.92,0,0,0,27,45a1.05,1.05,0,0,0-.57.15,1.25,1.25,0,0,0-.38.41v2a1.13,1.13,0,0,0,.38.4,1.06,1.06,0,0,0,.58.15.92.92,0,0,0,.82-.4,1.74,1.74,0,0,0,.29-1Z"/><path class="cls-3" d="M31.3,43.44v1h.8V45h-.8V47.6a.59.59,0,0,0,.12.42.48.48,0,0,0,.33.12l.15,0,.14,0,.1.53a.65.65,0,0,1-.25.12,1.29,1.29,0,0,1-.33,0,1,1,0,0,1-.75-.28,1.22,1.22,0,0,1-.28-.89V45h-.67v-.57h.67v-1Z"/><path class="cls-3" d="M33.15,46.54a2.38,2.38,0,0,1,.5-1.55,1.9,1.9,0,0,1,2.77,0,2.33,2.33,0,0,1,.51,1.55v.08a2.32,2.32,0,0,1-.51,1.55,1.89,1.89,0,0,1-2.76,0,2.32,2.32,0,0,1-.51-1.55Zm.77.08a2,2,0,0,0,.28,1.11,1,1,0,0,0,1.68,0,2,2,0,0,0,.28-1.11v-.08a2,2,0,0,0-.28-1.11A1,1,0,0,0,35,45a.94.94,0,0,0-.83.44,2,2,0,0,0-.28,1.11Z"/><path class="cls-3" d="M39,44.46,39,45a1.38,1.38,0,0,1,.52-.47,1.58,1.58,0,0,1,.74-.16,1.35,1.35,0,0,1,.73.19,1.19,1.19,0,0,1,.45.59,1.57,1.57,0,0,1,.53-.58,1.46,1.46,0,0,1,.76-.2,1.25,1.25,0,0,1,1,.44,2,2,0,0,1,.38,1.33v2.53h-.77V46.16a1.36,1.36,0,0,0-.22-.89.78.78,0,0,0-.64-.26.84.84,0,0,0-.64.27,1.26,1.26,0,0,0-.28.7v2.71h-.78V46.16a1.36,1.36,0,0,0-.22-.87A.74.74,0,0,0,40,45a1,1,0,0,0-.58.15.91.91,0,0,0-.35.4v3.13h-.77V44.46Z"/><path class="cls-3" d="M51.1,47.23H49l-.51,1.46h-.79L49.71,43h.66l2,5.69H51.6Zm-1.92-.65h1.7l-.83-2.44h0Z"/><path class="cls-3" d="M54.2,44.46l0,.63a1.55,1.55,0,0,1,.53-.52,1.49,1.49,0,0,1,.73-.18,1.38,1.38,0,0,1,1.06.4A1.74,1.74,0,0,1,56.94,46v2.67h-.77V46a1.11,1.11,0,0,0-.22-.79.87.87,0,0,0-.67-.24,1.28,1.28,0,0,0-.61.14,1.15,1.15,0,0,0-.39.4v3.14h-.77V44.46Z"/><path class="cls-3" d="M61.06,48.69a2.73,2.73,0,0,1-.06-.34,1.43,1.43,0,0,1,0-.29,1.84,1.84,0,0,1-.56.51,1.49,1.49,0,0,1-.74.2,1.37,1.37,0,0,1-1-.34,1.23,1.23,0,0,1-.35-.93,1.09,1.09,0,0,1,.49-.94,2.28,2.28,0,0,1,1.33-.35H61V45.8a.78.78,0,0,0-.23-.59A.86.86,0,0,0,60.1,45a.88.88,0,0,0-.6.19.53.53,0,0,0-.23.45h-.73v0a1,1,0,0,1,.43-.84,1.77,1.77,0,0,1,1.19-.38,1.74,1.74,0,0,1,1.15.36,1.3,1.3,0,0,1,.44,1v2c0,.15,0,.3,0,.44a2.71,2.71,0,0,0,.09.41Zm-1.28-.56a1.3,1.3,0,0,0,.75-.22,1,1,0,0,0,.44-.49v-.69h-.86a1.13,1.13,0,0,0-.75.24.71.71,0,0,0-.28.55.56.56,0,0,0,.18.44A.74.74,0,0,0,59.78,48.13Z"/><path class="cls-3" d="M64.09,48.69h-.77V42.6h.77Z"/><path class="cls-3" d="M67,47.12l.13.54h0l1-3.2H69l-1.78,4.88a2.1,2.1,0,0,1-.46.74,1,1,0,0,1-.8.32l-.24,0-.22-.05.07-.6h.35a.46.46,0,0,0,.4-.22,2.77,2.77,0,0,0,.26-.48l.19-.45-1.57-4.14h.86Z"/><path class="cls-3" d="M70.82,48.09h2.44v.6H69.91v-.54l2.28-3.08H69.93v-.61h3.2V45Z"/><path class="cls-3" d="M76.21,48.77a1.78,1.78,0,0,1-1.42-.58,2.24,2.24,0,0,1-.51-1.53v-.17A2.2,2.2,0,0,1,74.8,45a1.64,1.64,0,0,1,1.29-.59,1.53,1.53,0,0,1,1.27.52,2.19,2.19,0,0,1,.42,1.41v.4h-2.7v0a1.7,1.7,0,0,0,.28,1,1,1,0,0,0,.86.4,2,2,0,0,0,.68-.11,1.45,1.45,0,0,0,.51-.31l.3.5a1.75,1.75,0,0,1-.6.37A2.37,2.37,0,0,1,76.21,48.77ZM76.09,45a.84.84,0,0,0-.67.31,1.45,1.45,0,0,0-.32.8v0H77v-.07a1.24,1.24,0,0,0-.22-.76A.84.84,0,0,0,76.09,45Z"/><path class="cls-3" d="M81,45.14l-.39,0a.93.93,0,0,0-.51.14,1,1,0,0,0-.33.41v3H79V44.46h.69l.08.62a1.38,1.38,0,0,1,.44-.51,1.07,1.07,0,0,1,.61-.18H81l.13,0Z"/></g></g></svg>